<?xml version="1.0" encoding="UTF-8"?>
<!DOCTYPE svg PUBLIC "-//W3C//DTD SVG 1.0//EN" "http://www.w3.org/TR/2001/REC-SVG-20010904/DTD/svg10.dtd">
<!-- Creator: CorelDRAW 2021 (64-Bit) -->
<svg xmlns="http://www.w3.org/2000/svg" xml:space="preserve" width="1126px" height="136px" version="1.0" style="shape-rendering:geometricPrecision; text-rendering:geometricPrecision; image-rendering:optimizeQuality; fill-rule:evenodd; clip-rule:evenodd"
viewBox="0 0 1619.48 195.29"
 xmlns:xlink="http://www.w3.org/1999/xlink"
 xmlns:xodm="http://www.corel.com/coreldraw/odm/2003">
 <defs>
  <style type="text/css">
   <![CDATA[
    .fil7 {fill:url(#id0);fill-rule:nonzero}
    .fil2 {fill:url(#id1);fill-rule:nonzero}
    .fil1 {fill:url(#id2);fill-rule:nonzero}
    .fil3 {fill:url(#id3);fill-rule:nonzero}
    .fil0 {fill:url(#id4);fill-rule:nonzero}
    .fil8 {fill:url(#id5);fill-rule:nonzero}
    .fil4 {fill:url(#id6);fill-rule:nonzero}
    .fil6 {fill:url(#id7);fill-rule:nonzero}
    .fil5 {fill:url(#id8);fill-rule:nonzero}
   ]]>
  </style>
  <linearGradient id="id0" gradientUnits="userSpaceOnUse" x1="729.23" y1="204.69" x2="729.8" y2="59.96">
   <stop offset="0" style="stop-opacity:1; stop-color:#2B2A29"/>
   <stop offset="1" style="stop-opacity:1; stop-color:#F17E00"/>
  </linearGradient>
  <linearGradient id="id1" gradientUnits="userSpaceOnUse" xlink:href="#id0" x1="729.23" y1="204.69" x2="729.8" y2="59.96">
  </linearGradient>
  <linearGradient id="id2" gradientUnits="userSpaceOnUse" xlink:href="#id0" x1="729.24" y1="204.7" x2="729.8" y2="59.96">
  </linearGradient>
  <linearGradient id="id3" gradientUnits="userSpaceOnUse" xlink:href="#id0" x1="729.23" y1="204.7" x2="729.8" y2="59.96">
  </linearGradient>
  <linearGradient id="id4" gradientUnits="userSpaceOnUse" xlink:href="#id0" x1="729.23" y1="204.69" x2="729.8" y2="59.96">
  </linearGradient>
  <linearGradient id="id5" gradientUnits="userSpaceOnUse" xlink:href="#id0" x1="729.23" y1="204.69" x2="729.8" y2="59.96">
  </linearGradient>
  <linearGradient id="id6" gradientUnits="userSpaceOnUse" xlink:href="#id0" x1="729.24" y1="204.69" x2="729.8" y2="59.96">
  </linearGradient>
  <linearGradient id="id7" gradientUnits="userSpaceOnUse" xlink:href="#id0" x1="729.24" y1="204.69" x2="729.8" y2="59.96">
  </linearGradient>
  <linearGradient id="id8" gradientUnits="userSpaceOnUse" xlink:href="#id0" x1="729.23" y1="204.69" x2="729.8" y2="59.96">
  </linearGradient>
 </defs>
 <g id="Layer_x0020_1">
  <metadata id="CorelCorpID_0Corel-Layer"/>
  <g id="_1631805301440">
   <path id="Orange" class="fil0" d="M1092.09 37.76c4.03,0 7.34,0.22 9.93,0.65l0 25.68c-2.3,-0.29 -5.68,-0.43 -10.14,-0.43 -9.93,0 -18.31,3.34 -25.14,10.03 -6.83,6.69 -10.75,15.65 -11.76,26.87l0 50.49 -27.62 0 0 -112.21 27.62 0 0 35.61c1.29,-10.94 5,-19.78 11.11,-26.55 6.12,-6.76 14.78,-10.14 26,-10.14zm72.29 -0.21c8.2,0 15.25,1.79 21.15,5.39 5.9,3.6 9.21,7.27 9.93,11.01l0 -15.11 27.62 0 0 112.21 -27.62 0 0 -16.62c-0.72,3.89 -4.07,7.88 -10.04,11.98 -5.97,4.1 -12.98,6.15 -21.04,6.15 -6.04,0 -12.08,-1.19 -18.12,-3.56 -6.05,-2.37 -11.69,-5.83 -16.94,-10.36 -5.25,-4.53 -9.5,-10.61 -12.73,-18.23 -3.24,-7.63 -4.86,-16.11 -4.86,-25.46 0,-9.21 1.62,-17.55 4.86,-25.04 3.23,-7.48 7.44,-13.52 12.62,-18.12 5.18,-4.6 10.79,-8.13 16.83,-10.57 6.04,-2.45 12.16,-3.67 18.34,-3.67zm4.32 23.73c-7.77,0 -14.6,3.06 -20.5,9.17 -5.9,6.12 -8.85,14.28 -8.85,24.5 0,10.35 2.95,18.59 8.85,24.7 5.9,6.12 12.73,9.17 20.5,9.17 7.77,0 14.38,-2.84 19.85,-8.52 5.47,-5.68 8.2,-14.13 8.2,-25.35 0,-11.51 -2.7,-20 -8.09,-25.47 -5.4,-5.46 -12.05,-8.2 -19.96,-8.2zm144.36 -23.52c11.65,0 21.58,3.99 29.78,11.98 8.2,7.98 12.3,20.17 12.3,36.57l0 64.74 -27.62 0 0 -63.01c0,-17.69 -6.84,-26.54 -20.5,-26.54 -8.49,0 -15.65,3.2 -21.47,9.6 -5.83,6.4 -9.17,11.98 -10.04,16.73l0 63.22 -27.62 0 0 -112.21 27.62 0 0 22.44c0.58,-4.6 4.35,-9.67 11.33,-15.21 6.98,-5.54 15.72,-8.31 26.22,-8.31zm146.3 1.08l27.62 0 0 112.21c0,6.33 -1.18,12.08 -3.56,17.26 -2.37,5.18 -5.43,9.39 -9.17,12.63 -3.74,3.23 -8.02,5.97 -12.84,8.2 -4.82,2.23 -9.53,3.81 -14.13,4.74 -4.6,0.94 -9.06,1.41 -13.38,1.41 -11.37,0 -22.59,-2.88 -33.66,-8.63l0 -23.96c10.79,6.04 22.01,9.07 33.66,9.07 7.91,0 14.13,-2.02 18.67,-6.05 4.53,-4.02 6.79,-8.91 6.79,-14.67l0 -16.62c-0.72,3.89 -4.06,7.88 -10.03,11.98 -5.97,4.1 -12.99,6.15 -21.04,6.15 -6.04,0 -12.08,-1.19 -18.13,-3.56 -6.04,-2.37 -11.68,-5.83 -16.94,-10.36 -5.25,-4.53 -9.49,-10.61 -12.73,-18.23 -3.23,-7.63 -4.85,-16.11 -4.85,-25.46 0,-9.21 1.62,-17.55 4.85,-25.04 3.24,-7.48 7.45,-13.52 12.63,-18.12 5.18,-4.6 10.79,-8.13 16.83,-10.57 6.04,-2.45 12.15,-3.67 18.34,-3.67 8.2,0 15.25,1.79 21.15,5.39 5.89,3.6 9.2,7.27 9.92,11.01l0 -15.11zm-47.25 80.81c5.89,6.12 12.73,9.17 20.5,9.17 7.76,0 14.38,-2.84 19.85,-8.52 5.46,-5.68 8.2,-14.13 8.2,-25.35 0,-11.51 -2.7,-20 -8.09,-25.47 -5.4,-5.46 -12.05,-8.2 -19.96,-8.2 -7.77,0 -14.61,3.06 -20.5,9.17 -5.9,6.12 -8.85,14.28 -8.85,24.5 0,10.35 2.95,18.59 8.85,24.7zm151.69 -82.1c6.19,0 12.48,1.22 18.89,3.67 6.4,2.44 12.37,5.93 17.91,10.46 5.53,4.53 10.06,10.61 13.59,18.23 3.52,7.63 5.29,16.04 5.29,25.25 0,3.6 -0.22,6.98 -0.65,10.14l-82.86 0c1.44,7.2 4.96,12.92 10.57,17.16 5.61,4.24 11.58,6.36 17.91,6.36 9.5,0 16.83,-2.8 22.01,-8.41l22.66 11.87c-11.65,13.52 -26.61,20.28 -44.89,20.28 -4.74,0 -9.67,-0.72 -14.78,-2.16 -5.1,-1.44 -10.18,-3.7 -15.21,-6.8 -5.03,-3.09 -9.53,-6.83 -13.49,-11.22 -3.95,-4.38 -7.15,-9.81 -9.6,-16.29 -2.44,-6.47 -3.67,-13.45 -3.67,-20.93 0,-12.23 3.06,-22.87 9.17,-31.93 6.12,-9.07 13.35,-15.61 21.69,-19.64 8.34,-4.03 16.83,-6.04 25.46,-6.04zm0 23.95c-6.47,0 -12.3,2.01 -17.48,6.04 -5.17,4.03 -8.56,9.71 -10.14,17.05l55.46 0c-1.58,-7.34 -5.07,-13.02 -10.47,-17.05 -5.39,-4.03 -11.18,-6.04 -17.37,-6.04z"/>
   <g>
    <g>
     <g>
      <path class="fil1" d="M981.55 22.12c-10.39,-10.4 -23.29,-17.38 -37.33,-20.39l-24.14 41.88 76.53 -0.05c-3.68,-7.87 -8.74,-15.12 -15.06,-21.44z"/>
     </g>
    </g>
    <g>
     <g>
      <path class="fil2" d="M1000.06 52.39l-48.35 0.03 38.28 66.25c8.86,-12.58 13.63,-27.56 13.63,-43.27 0,-7.92 -1.22,-15.66 -3.56,-23.01z"/>
     </g>
    </g>
    <g>
     <g>
      <path class="fil3" d="M928.26 0.04c-20.13,0 -39.06,7.84 -53.29,22.08 -0.85,0.85 -1.67,1.71 -2.48,2.6l24.16 41.86 38.19 -66.25c-2.18,-0.19 -4.37,-0.29 -6.58,-0.29z"/>
     </g>
    </g>
    <g>
     <g>
      <path class="fil4" d="M959.88 84.23l-38.23 66.25c2.19,0.19 4.39,0.29 6.61,0.29 20.13,0 39.06,-7.84 53.29,-22.07 0.86,-0.86 1.7,-1.74 2.51,-2.64l-24.18 -41.83z"/>
     </g>
    </g>
    <g>
     <g>
      <path class="fil5" d="M859.88 107.18c3.68,7.9 8.75,15.17 15.09,21.52 10.39,10.38 23.27,17.36 37.3,20.37l24.16 -41.87 -76.55 -0.02z"/>
     </g>
    </g>
    <g>
     <g>
      <path class="fil6" d="M866.56 32.1c-8.88,12.59 -13.66,27.58 -13.66,43.3 0,7.91 1.21,15.63 3.54,22.95l48.36 0.01 -38.24 -66.26z"/>
     </g>
    </g>
   </g>
   <path id="__x0026_" class="fil7" d="M754.82 128.61c5.32,0 10.14,-1.66 14.46,-4.96l0 23.73c-4.32,3.31 -10.07,4.97 -17.26,4.97 -15.54,0 -23.31,-7.92 -23.31,-23.74l0 -1.3c-9.64,17.27 -25.1,25.9 -46.39,25.9 -13.67,0 -25.75,-4.35 -36.26,-13.06 -10.5,-8.7 -15.75,-20.32 -15.75,-34.85 0,-12.51 3.38,-22.65 10.14,-30.42 6.76,-7.77 14.96,-12.66 24.6,-14.68l-27.19 -60.2 96.68 0 0 23.74 -60.42 0 24.38 55.02 -8.63 0c-11.22,-0.14 -19.35,2.38 -24.39,7.55 -5.03,5.18 -7.55,11.3 -7.55,18.35 0,6.61 2.48,12.4 7.45,17.37 4.96,4.96 11.54,7.44 19.74,7.44 8.78,0 16.47,-2.55 23.09,-7.66 6.62,-5.11 9.93,-12.55 9.93,-22.33l0 -39.49 37.76 0 0 23.74 -10.14 0 0 33.01c0,4.75 0.79,7.91 2.37,9.49 1.58,1.59 3.81,2.38 6.69,2.38z"/>
   <path id="Black" class="fil8" d="M85.02 67.54c9.78,4.17 17.08,9.64 21.9,16.4 4.82,6.76 7.23,14.17 7.23,22.23 0,13.81 -4.93,24.74 -14.78,32.8 -9.85,8.05 -23.63,12.08 -41.32,12.08l-58.05 0 0 -151.05 56.1 0c13.96,0 25.18,3.38 33.67,10.14 8.48,6.76 12.73,16.69 12.73,29.78 0,13.09 -5.83,22.3 -17.48,27.62zm-56.97 -9.28l28.05 0c5.9,0 10.51,-1.47 13.81,-4.42 3.31,-2.95 4.97,-7.23 4.97,-12.84 0,-5.47 -1.69,-9.68 -5.07,-12.62 -3.38,-2.95 -7.95,-4.43 -13.71,-4.43l-28.05 0 0 34.31zm33.02 68.84c8.48,0 14.85,-2.05 19.1,-6.15 4.24,-4.1 6.36,-9.46 6.36,-16.08 0,-6.33 -2.16,-11.69 -6.47,-16.07 -4.32,-4.39 -10.65,-6.59 -18.99,-6.59l-33.02 0 0 44.89 33.02 0zm101.85 -127.1l0 151.05 -28.05 0 0 -151.05 28.05 0zm72.07 37.55c8.2,0 15.25,1.79 21.15,5.39 5.9,3.6 9.21,7.27 9.92,11.01l0 -15.11 27.63 0 0 112.21 -27.63 0 0 -16.62c-0.71,3.89 -4.06,7.88 -10.03,11.98 -5.97,4.1 -12.98,6.15 -21.04,6.15 -6.04,0 -12.08,-1.19 -18.12,-3.56 -6.05,-2.37 -11.69,-5.83 -16.94,-10.36 -5.26,-4.53 -9.5,-10.61 -12.73,-18.23 -3.24,-7.63 -4.86,-16.11 -4.86,-25.46 0,-9.21 1.62,-17.55 4.86,-25.04 3.23,-7.48 7.44,-13.52 12.62,-18.12 5.18,-4.6 10.79,-8.13 16.83,-10.57 6.04,-2.45 12.15,-3.67 18.34,-3.67zm4.32 23.73c-7.77,0 -14.61,3.06 -20.5,9.17 -5.9,6.12 -8.85,14.28 -8.85,24.5 0,10.35 2.95,18.59 8.85,24.7 5.89,6.12 12.73,9.17 20.5,9.17 7.77,0 14.38,-2.84 19.85,-8.52 5.47,-5.68 8.2,-14.13 8.2,-25.35 0,-11.51 -2.7,-20 -8.09,-25.47 -5.4,-5.46 -12.05,-8.2 -19.96,-8.2zm131.41 -23.73c8.78,0 17.44,2.15 26,6.47 8.56,4.32 15.5,10.79 20.83,19.42l-24.39 8.85c-5.03,-7.34 -12.51,-11.01 -22.44,-11.01 -7.62,0 -14.35,3.06 -20.17,9.17 -5.83,6.12 -8.74,14.35 -8.74,24.71 0,10.22 2.91,18.38 8.74,24.49 5.82,6.12 12.55,9.17 20.17,9.17 9.93,0 17.34,-3.66 22.23,-11l24.81 8.85c-5.32,8.63 -12.3,15.1 -20.93,19.42 -8.63,4.31 -17.33,6.47 -26.11,6.47 -6.04,0 -12.26,-1.19 -18.66,-3.56 -6.41,-2.37 -12.48,-5.79 -18.24,-10.25 -5.75,-4.46 -10.46,-10.5 -14.13,-18.13 -3.67,-7.62 -5.51,-16.11 -5.51,-25.46 0,-9.35 1.84,-17.84 5.51,-25.46 3.67,-7.62 8.38,-13.7 14.13,-18.24 5.76,-4.53 11.83,-7.98 18.24,-10.35 6.4,-2.38 12.62,-3.56 18.66,-3.56zm117.39 52.22l59.34 61.28 -33.66 0 -41.43 -44.88 -9.5 9.92 0 34.96 -27.62 0 0 -151.05 27.62 0 0 82.21 40.14 -43.37 34.09 0 -48.98 50.93z"/>
  </g>
 </g>
</svg>
